
<svg id="b" xmlns="http://www.w3.org/2000/svg" viewBox="0 0 335.45 262.13"><defs><style></style></defs><g id="c"><path  class="logo_body" d="M335.45,65.02c0,3.48-1.28,5.22-3.74,5.22s-4.25-3.12-5.27-9.47c-2.97-18.17-9.07-31.38-18.28-39.73-5.99-5.27-14.07-5.68-26.51-6.96l-32.74-1.62c-4.6,.18-9.17-1.34-11.56,4.18-.86,1.98-1.89,16.38-1.89,43.88v57.84c15.64-.58,30.31-1.45,33.07-3.06,7.48-4.35,11.98-16.64,13.47-36.81,.46-5.74,1.99-8.6,4.45-8.6s3.74,1.84,3.74,5.58c0,2.25-.1,4.14-.36,5.63-.77,17.2-1.13,33.12-1.13,47.82,0,18.94,.41,33.89,1.23,44.85,.16,1.02,.26,2.5,.26,4.5,0,2.97-1.23,4.46-3.69,4.46-2,0-3.22-.72-3.74-2.21-.51-1.53-1.38-7.27-2.61-17.2-1.99-15.2-5.89-24.68-11.72-28.41-2.98-1.9-17.52-2.84-32.97-3.32v103.2c0,9.99,1.02,15.88,3.02,17.62,3.22,2.25,11.31,3.38,24.27,3.38h2.25c4.96,0,7.47,1.07,7.47,3.17s-2.61,3.17-7.83,3.17h-93.13c-5.22,0-7.78-1.12-7.78-3.32,0-2.51,3.58-3.79,10.8-3.79,12.7,0,20.43-1.33,23.19-4.1,1.23-1.23,1.85-9.62,1.85-25.09V31.95c0,.2-1.49,4.61-4.46,13.05-4.06,12.22-8.86,26.93-14.39,44.12-1.11,3.43-2.24,6.96-3.4,10.59-7.4,23.08-15.99,50.17-25.78,81.28l-17.35,59.49c-3.48,11.72-5.99,17.56-7.48,17.56-1.74,0-3.63-2.97-5.63-8.96-7.17-22.68-27.54-79.31-61.03-169.77l-14.85-39.89c0,4.71,.06,11.21,.06,19.41v121.49c0,45.57,.35,68.6,1.07,69.12,1.74,3.22,7.73,4.86,17.97,4.86,8.19,0,12.34,1.23,12.34,3.74,0,2.76-2.61,4.09-7.88,4.09-3.23,0-6.2-.25-8.96-.71-3.49-.51-6.61-.77-9.32-.77l-43.01,1.48c-4.45,0-6.71-1.12-6.71-3.32,0-2.51,7.07-3.89,21.3-4.15,5.99,0,9.47-.97,10.45-2.97,1.02-2,1.48-8.5,1.48-19.51V52.94c0-20.74-.2-31.95-.71-33.69-1.03-3.53-3.13-5.89-6.35-7.12-3.28-1.28-10.24-2.25-20.94-3.02C1.99,8.86,0,7.78,0,5.78,0,3.02,3.63,1.64,10.95,1.64h26.11c14.85,0,25.3-.1,31.39-.26,1.18,3.23,8.45,22.84,21.66,58.78,5.68,15,21.65,58.72,47.87,131.17,4.76-16.28,9.67-32.26,14.74-48.03L192.71,19.76c2.45-7.11,4.66-13.05,6.6-17.76L329.46,0c.25,3.22,.97,12.54,2.25,28.01,.72,10.49,1.74,19.81,2.97,28.05,.51,3.48,.77,6.45,.77,8.96Z"/><polygon class="d" points="235.46 231.73 235.46 209.27 217.51 227.47 199.57 209.3 199.57 231.74 217.51 249.93 235.46 231.73"/><path class="d" d="M235.46,148.81v20.71c-11.04-11.28-21.89-22.24-31.15-31.58-1.63-1.64-3.21-3.24-4.74-4.77v-19.18c1.49,1.44,3.07,2.96,4.74,4.57,2.15,2.07,4.44,4.29,6.85,6.63,3.83,3.72,7.97,7.74,12.32,11.96,3.85,3.76,7.87,7.66,11.98,11.66Z"/><polygon class="d" points="235.46 50.15 235.46 72.61 217.51 54.41 199.57 72.58 199.57 50.14 217.51 31.95 235.46 50.15"/></g></svg>