<svg id="scrolltop" xmlns="http://www.w3.org/2000/svg" viewBox="0 0 241.74 427.23"><defs><style>.d{fill:#f2d59f;}.e{fill:#ff7124;}.f{stroke:#9c613d;}.f,.g{fill:none;}.g{stroke:#1d1d1b;}</style></defs><g id="c"><path class="line" d="M207,216.81c-.86-1.28-1.61-2.63-2.19-4.07-2.06-5.14-1.71-10.88-1.45-16.41,2.18-46.98-5.4-94.39-22.1-138.35-5.29-13.93-11.65-27.76-21.6-38.85S135.62-.09,120.71,0c-14.71,.09-28.54,8.2-38.34,19.17-9.8,10.97-16.1,24.61-21.36,38.35-16.87,44.09-24.52,91.69-22.3,138.85,.26,5.64,.63,11.5-1.52,16.72-1.84,4.46-5.34,7.98-8.55,11.59C10.74,244.84-1.78,273.02,.21,300.3c1.75,24.08,9.92,47.67,23.55,67.61,8.24-10.85,11-24.72,14.68-37.84s9.18-26.8,20.59-34.23c11.24,.72,21.56,9.2,24.45,20.08,1.13,4.27,1.45,9.23,4.84,12.07,2.75,2.31,6.67,2.42,10.26,2.42h44.94c3.58,0,7.49-.11,10.24-2.41,3.43-2.86,3.73-7.89,4.88-12.2,2.88-10.84,13.22-19.25,24.42-19.86,11.3,7.28,16.85,20.74,20.48,33.68,3.63,12.94,6.2,26.62,13.98,37.58,16.13-20.11,24.86-46.03,24.19-71.8s-10.74-51.2-27.89-70.45c-2.35-2.64-4.87-5.23-6.83-8.14h.01ZM59.04,282.38c-1.7,1.2-3.3,2.45-4.82,3.74-.92,.77-1.8,1.57-2.65,2.37-.5,.47-.98,.95-1.46,1.43-.34,.34-.68,.69-1.01,1.03-.07,.07-.13,.14-.18,.2-.18,.18-.34,.36-.51,.54-.36,.38-.71,.77-1.05,1.17-.89,1-1.74,2.02-2.55,3.06-.4,.51-.8,1.04-1.19,1.56-.34,.45-.67,.91-.99,1.37-.06,.07-.11,.15-.16,.23-.75,1.07-1.47,2.15-2.16,3.26-.35,.55-.69,1.1-1.02,1.66-.49,.84-.97,1.68-1.45,2.53h0c-.47,.86-.92,1.72-1.37,2.59-.05,.08-.09,.17-.13,.25-1.38,2.73-2.64,5.53-3.8,8.39-.15,.35-.29,.7-.43,1.05-.5,1.26-.98,2.52-1.45,3.79-.55,1.48-1.08,2.97-1.59,4.47-.46,1.35-.91,2.7-1.36,4.07-.03,.09-.06,.18-.09,.28-.94,2.91-1.85,5.86-2.75,8.82-.06,.18-.11,.36-.17,.54-.39,1.3-.79,2.6-1.19,3.9-21.56-38.55-13.93-91.02,17.44-117.69,1.2,3.68,2.38,7.29,3.54,10.86,1.27,3.87,2.51,7.68,3.74,11.44,.28,.87,.56,1.73,.85,2.59,1.13,3.46,2.25,6.88,3.36,10.28,2.22,6.8,4.41,13.5,6.6,20.21h0Zm88.56,35.95c-8.78-.23-17.63-.46-26.56-.69-8.93,.23-17.78,.46-26.56,.69-.5-4.1-1.09-9-1.43-11.8,9.47-.43,18.76-.86,27.99-1.27,9.23,.41,18.52,.84,27.99,1.27-.34,2.8-.93,7.7-1.43,11.8h0Zm13.2-24.93c-13.25-.08-26.51-.2-39.76-.4-13.25,.2-26.51,.32-39.76,.4-2.58,.02-6.91-1.91-7.48-3.82-8.53-28.57-20.28-56.85-23.8-86.09-4.67-38.8,1.48-77.95,12.05-115.84,6.35-22.79,14.11-45.11,31.08-62.74,9.31-9.69,18.42-14.39,27.91-14.3,9.49-.09,18.6,4.61,27.91,14.3,16.97,17.63,24.73,39.95,31.08,62.74,10.57,37.89,16.72,77.04,12.05,115.84-3.52,29.24-15.27,57.52-23.8,86.09-.57,1.91-4.9,3.84-7.48,3.82h0Zm57.77,51.3c-.4-1.3-.8-2.6-1.19-3.9-.06-.18-.11-.36-.17-.54-.9-2.96-1.81-5.91-2.75-8.82-.03-.1-.06-.19-.09-.28-.45-1.37-.9-2.72-1.36-4.07-.51-1.5-1.04-2.99-1.59-4.47-.47-1.27-.95-2.53-1.45-3.79-.14-.35-.28-.7-.43-1.05-1.16-2.86-2.42-5.66-3.8-8.39-.04-.08-.08-.17-.13-.25-.45-.87-.9-1.73-1.37-2.58h0c-.48-.86-.96-1.7-1.45-2.54-.34-.56-.68-1.11-1.02-1.66-.69-1.11-1.41-2.19-2.16-3.26-.05-.08-.1-.16-.16-.23-.33-.46-.66-.92-.99-1.37-.39-.52-.79-1.05-1.19-1.56-.82-1.04-1.66-2.06-2.55-3.06-.34-.4-.69-.79-1.05-1.17-.17-.18-.33-.36-.51-.54-.05-.06-.11-.13-.18-.2-.33-.35-.67-.69-1.01-1.03-.48-.48-.96-.96-1.46-1.43-.85-.8-1.73-1.6-2.65-2.37-1.52-1.29-3.12-2.54-4.82-3.74h0c2.19-6.72,4.38-13.42,6.6-20.22,1.11-3.4,2.23-6.82,3.36-10.28,.29-.86,.57-1.72,.85-2.59,1.23-3.77,2.47-7.57,3.74-11.44,1.16-3.57,2.34-7.18,3.54-10.86,.5,.42,.99,.85,1.47,1.29,.27,.24,.55,.49,.81,.74,.42,.38,.83,.77,1.24,1.17,.57,.55,1.13,1.11,1.68,1.68,.55,.56,1.1,1.14,1.63,1.73,.53,.58,1.05,1.17,1.56,1.77,0,0,.03,.03,.04,.05,.41,.48,.81,.96,1.2,1.45,1.15,1.41,2.25,2.86,3.3,4.35,.35,.49,.69,.99,1.03,1.49,.51,.76,1.01,1.53,1.5,2.3,.85,1.36,1.66,2.74,2.43,4.15,.39,.7,.77,1.41,1.14,2.12h0c.74,1.44,1.44,2.89,2.1,4.36,1.32,2.95,2.49,6,3.52,9.1,.19,.58,.38,1.17,.56,1.75,.36,1.18,.7,2.36,1.02,3.54,.16,.6,.31,1.19,.46,1.79h0c.37,1.5,.71,3.01,1.01,4.53,.02,.13,.05,.26,.07,.39,.32,1.6,.59,3.2,.82,4.82,.12,.82,.23,1.64,.33,2.46h0c.1,.83,.19,1.66,.27,2.49s.15,1.66,.21,2.49c.05,.62,.09,1.25,.11,1.88,.02,.3,.04,.61,.05,.92,.04,.82,.07,1.64,.08,2.47,.02,.74,.03,1.49,.03,2.23,0,16.61-3.97,33.42-12.23,48.18h0Z"/><path class="body" d="M230.8,296.5c0,16.61-3.97,33.42-12.23,48.18-.4-1.3-.8-2.6-1.19-3.9-.06-.18-.11-.36-.17-.54-.89-2.96-1.8-5.91-2.75-8.82-.03-.1-.06-.19-.09-.28-.45-1.37-.9-2.72-1.36-4.07-.51-1.5-1.04-2.99-1.59-4.47-.47-1.27-.95-2.53-1.45-3.79-.14-.35-.28-.7-.43-1.05-1.16-2.86-2.42-5.66-3.8-8.39-.04-.08-.08-.17-.13-.25-.44-.87-.89-1.73-1.37-2.58h0c-.46-.86-.95-1.7-1.45-2.54-.34-.56-.68-1.11-1.02-1.66-.68-1.1-1.4-2.19-2.16-3.26-.05-.08-.1-.16-.16-.23-.33-.46-.66-.92-.99-1.37-.38-.52-.78-1.05-1.19-1.56-.82-1.04-1.66-2.06-2.55-3.06-.34-.4-.69-.79-1.05-1.17-.17-.18-.33-.36-.51-.54-.05-.06-.11-.13-.18-.2-.33-.35-.67-.69-1.01-1.03-.48-.48-.96-.96-1.46-1.43-.85-.8-1.73-1.6-2.65-2.37-1.52-1.3-3.12-2.55-4.82-3.75,2.19-6.71,4.38-13.41,6.6-20.21,1.11-3.4,2.23-6.82,3.36-10.28,.29-.86,.57-1.72,.85-2.59,1.23-3.77,2.47-7.57,3.74-11.44,1.16-3.57,2.34-7.18,3.54-10.86,.5,.42,.99,.85,1.47,1.29,.27,.24,.55,.49,.81,.74,.42,.38,.83,.77,1.24,1.17,.57,.55,1.13,1.11,1.68,1.68,.55,.56,1.1,1.14,1.63,1.73,.53,.58,1.05,1.17,1.56,1.77,0,0,.03,.03,.04,.05,.41,.48,.81,.96,1.2,1.45,1.15,1.41,2.25,2.86,3.3,4.35,.35,.49,.69,.99,1.03,1.49,.51,.76,1.01,1.53,1.5,2.3,.84,1.36,1.66,2.74,2.43,4.15,.39,.7,.77,1.41,1.14,2.12h0c.73,1.44,1.43,2.89,2.1,4.36,1.32,2.95,2.49,6,3.52,9.1,.19,.58,.38,1.17,.56,1.75,.36,1.18,.7,2.36,1.02,3.54,.16,.6,.31,1.19,.46,1.79h0c.37,1.5,.71,3.01,1.01,4.53,.02,.13,.05,.26,.07,.39,.32,1.6,.59,3.2,.82,4.82,.12,.82,.23,1.64,.33,2.46h0c.1,.83,.19,1.66,.27,2.49s.15,1.66,.21,2.49c.04,.62,.08,1.25,.11,1.88,.02,.3,.04,.61,.05,.92,.04,.82,.07,1.64,.08,2.47,.02,.74,.03,1.49,.03,2.23h0Z"/><g><path class="body" d="M180.03,87.63c-6.35-22.79-14.11-45.11-31.08-62.74-9.31-9.69-18.42-14.39-27.91-14.3-9.49-.09-18.6,4.61-27.91,14.3-16.97,17.63-24.73,39.95-31.08,62.74-10.57,37.89-16.72,77.04-12.05,115.84,3.52,29.24,15.27,57.52,23.8,86.09,.57,1.91,4.9,3.84,7.48,3.82,13.25-.08,26.51-.2,39.76-.4,13.25,.2,26.51,.32,39.76,.4,2.58,.02,6.91-1.91,7.48-3.82,8.53-28.57,20.28-56.85,23.8-86.09,4.67-38.8-1.48-77.95-12.05-115.84h0Zm-37.08,46.92c-6.35,6.14-14.15,9.24-21.91,9.31-7.76-.07-15.56-3.17-21.91-9.31-13.08-12.67-13.46-31.8-.87-44.72,6.29-6.47,14.54-9.75,22.78-9.79,8.24,.04,16.49,3.32,22.78,9.79,12.59,12.92,12.21,32.05-.87,44.72Z"/></g><path class="body" d="M59.04,282.37c-1.7,1.2-3.3,2.45-4.82,3.75-.92,.77-1.8,1.57-2.65,2.37-.5,.47-.98,.95-1.46,1.43-.34,.34-.68,.69-1.01,1.03-.07,.07-.13,.14-.18,.2-.18,.18-.34,.36-.51,.54-.36,.38-.71,.77-1.05,1.17-.89,1-1.74,2.02-2.55,3.06-.41,.51-.81,1.04-1.19,1.56-.34,.45-.67,.91-.99,1.37-.06,.07-.11,.15-.16,.23-.76,1.07-1.48,2.16-2.16,3.26-.35,.55-.69,1.1-1.02,1.66-.5,.84-.99,1.68-1.45,2.53,0,.01,0,.01,0,.01-.48,.85-.93,1.71-1.37,2.58-.05,.08-.09,.17-.13,.25-1.38,2.73-2.64,5.53-3.8,8.39-.15,.35-.29,.7-.43,1.05-.5,1.26-.98,2.52-1.45,3.79-.55,1.48-1.08,2.97-1.59,4.47-.46,1.35-.91,2.7-1.36,4.07-.03,.09-.06,.18-.09,.28-.95,2.91-1.86,5.86-2.75,8.82-.06,.18-.11,.36-.17,.54-.39,1.3-.79,2.6-1.19,3.9-21.56-38.55-13.93-91.02,17.44-117.69,1.2,3.68,2.38,7.29,3.54,10.86,1.27,3.87,2.51,7.68,3.74,11.44,.28,.87,.56,1.73,.85,2.59,1.13,3.46,2.25,6.88,3.36,10.28,2.22,6.8,4.41,13.5,6.6,20.21h0Z"/><path class="body" d="M24.87,340.24c.89-2.96,1.8-5.91,2.75-8.82-.94,2.91-1.85,5.86-2.75,8.82Z"/><path class="body" d="M59.04,282.37h0c-1.7,1.21-3.3,2.46-4.82,3.75,1.52-1.3,3.12-2.55,4.82-3.75Z"/><path class="hublot" d="M149.03,306.51c-.34,2.8-.93,7.7-1.43,11.8-8.78-.23-17.63-.46-26.56-.69-8.93,.23-17.78,.46-26.56,.69-.5-4.1-1.09-9-1.43-11.8,9.47-.43,18.76-.86,27.99-1.27,9.23,.41,18.52,.84,27.99,1.27h0Z"/><path class="line" d="M143.82,89.83c-6.29-6.47-14.54-9.75-22.78-9.79-8.24,.04-16.49,3.32-22.78,9.79-12.59,12.92-12.21,32.05,.87,44.72,6.35,6.14,14.15,9.24,21.91,9.31,7.76-.07,15.56-3.17,21.91-9.31,13.08-12.67,13.46-31.8,.87-44.72Zm-7.84,38.11c-3.98,3.69-9.46,5.53-14.94,5.55-5.48-.02-10.96-1.86-14.94-5.55-8.34-7.72-8.88-22.09-1.16-30.62,4.26-4.7,10.17-7.08,16.1-7.04,5.93-.04,11.84,2.34,16.1,7.04,7.72,8.53,7.18,22.9-1.16,30.62h0Z"/><path class="hublot" d="M135.97,127.94c-3.98,3.69-9.46,5.53-14.94,5.55-5.48-.02-10.96-1.86-14.94-5.55-8.34-7.72-8.88-22.09-1.16-30.62,4.26-4.7,10.17-7.08,16.1-7.04,5.93-.04,11.84,2.34,16.1,7.04,7.72,8.53,7.18,22.9-1.16,30.62h0Z"/><rect class="line speed first" x="117.07" y="340.24" width="10.62" height="86.99" rx="5.31" ry="5.31"/><rect class="line speed second" x="146.41" y="340.24" width="10.62" height="60.57" rx="5.31" ry="5.31"/><rect class="line speed third" x="87.73" y="340.24" width="10.62" height="60.57" rx="5.31" ry="5.31"/></g></svg>