<svg className="shape_home" xmlns="http://www.w3.org/2000/svg" xmlns:xlink="http://www.w3.org/1999/xlink" viewBox="0 0 235.17 238.27"><defs>
<linearGradient id="sw-gradient" x1="0" x2="1" y1="1" y2="0">
        <stop offset="0%" stop-color="#7A5FFF">
            <animate attributeName="stop-color" values="#7A5FFF; #01FF89; #7A5FFF" dur="7s" repeatCount="indefinite"></animate>
        </stop>
        <stop offset="100%" stop-color="#01FF89">
            <animate attributeName="stop-color" values="#01FF89; #7A5FFF; #01FF89" dur="7s" repeatCount="indefinite"></animate>
        </stop>
    </linearGradient>
</defs><g id="Calque_2" data-name="Calque 2"><g id="Calque_1-2" data-name="Calque 1">

<path  fill="url(#sw-gradient)" d="M201.86,16.91C221.29,32.7,231.62,60,234.35,85.53s-1.82,49.49-7.29,75.6c-5.16,25.81-11.23,54.05-28.54,67.11s-45.85,11.54-70.44,5.77c-24.29-5.47-44.64-15.18-64.37-27.63-19.74-12.15-38.87-27.33-51-48.59s-17-48.58-8.2-70.44C13,65.79,34.86,49.4,57,34.52,79.5,19.64,101.66,6.59,127.47,1.73,153.28-2.83,182.12,1.42,201.86,16.91Z"/>

</g></g></svg>

