<?xml version="1.0" encoding="UTF-8"?><svg id="a" xmlns="http://www.w3.org/2000/svg" viewBox="0 0 500 480.25"><path d="M0,7.69C2.35,1.95,6.82,0,12.78,0,170.94,.05,329.09,.03,487.24,.05c9.17,0,12.73,3.59,12.74,12.71,.02,31.57,.02,63.14,0,94.71,0,9.23-3.41,12.59-12.75,12.59-158.15,0-316.31-.01-474.46,.08-5.83,0-10-1.91-12.78-6.97V7.69Zm480.33,12.26H19.84V100.17H480.33V19.95Z"/><path d="M159.18,346.22c-47.68,0-95.35,0-143.03,0-12.23,0-15.06-2.79-15.06-14.82,0-60.86,0-121.73,0-182.59,0-11.85,2.92-14.83,14.58-14.83,95.68,0,191.36,0,287.03,0,11.51,0,14.56,3.01,14.57,14.35,0,61.19,0,122.38,0,183.57,0,11.35-3.03,14.33-14.57,14.33-47.84,0-95.68,0-143.52,0Zm138.28-192.41H21.01v160.16c1.52-1.68,2.51-2.73,3.45-3.81,19.15-22.16,38.28-44.34,57.46-66.48,7.33-8.47,12.63-8.45,19.9-.05,14.05,16.23,28.07,32.47,42.5,49.16,5.58-7.42,10.93-14.54,16.27-21.66,14.84-19.78,29.64-39.59,44.53-59.34,5.08-6.73,11.87-6.74,17.11-.23,.82,1.01,1.58,2.07,2.36,3.11,23.13,30.85,46.26,61.7,69.4,92.54,.92,1.22,1.92,2.38,3.49,4.3V153.82Zm-120.59,129.09c10.79,0,21-.11,31.21,.04,6.19,.09,10.29,3.9,10.54,9.28,.24,5.18-3.82,9.4-9.82,10.1-1.45,.17-2.92,.09-4.39,.09-13.01,0-26.02-.03-39.02,.05-1.53,0-3.71,.08-4.46,1.03-5.79,7.29-11.3,14.8-17.23,22.67h140.04c-12.99-17.33-25.39-34-38.03-50.5-1.01-1.32-3.61-1.96-5.48-1.98-16.26-.15-32.54,.37-48.77-.29-7.39-.3-11.55,2.45-14.58,9.51Zm-140.09,42.92c1.06,.5,1.34,.74,1.62,.74,26.01,.05,52.02,.1,78.04,.03,1.25,0,2.92-.73,3.68-1.69,4.13-5.19,8.03-10.56,12.19-16.11-13.51-15.64-26.84-31.06-40.43-46.8-18.58,21.52-36.71,42.53-55.1,63.82Zm161.32-72.17h31.26c-5.45-7.27-10.42-13.89-15.62-20.83-5.4,7.19-10.26,13.67-15.64,20.83Z"/><path d="M342.93,360.11c47.66,0,95.33,0,142.99,0,11.27,0,14.08,2.83,14.08,14.16,0,30.91,0,61.82,0,92.73,0,9.77-3.43,13.23-13.19,13.23-96.14,.01-192.28,.01-288.42,0-9.57,0-13.01-3.4-13.02-12.83-.02-31.56-.02-63.12,0-94.69,0-9.39,3.22-12.59,12.62-12.6,48.31-.02,96.63,0,144.94,0Zm137.26,19.85H205.33v80.5H480.18v-80.5Z"/><path d="M499.99,240.55c0,30.76,0,61.52,0,92.28,0,10.15-3.23,13.39-13.5,13.39-47.51,.02-95.03,.02-142.54,0-10.34,0-13.65-3.37-13.65-13.79,0-61.52,0-123.03,0-184.55,0-10.64,3.29-13.89,14.05-13.9,47.19,0,94.38,0,141.57,0,11.07,0,14.08,3.07,14.08,14.3,0,30.76,0,61.52,0,92.28Zm-150.02,85.82h130.25V153.98h-130.25v172.4Z"/><path d="M85.63,480.24c-23.6,0-47.19,0-70.79,0-10.38,0-13.74-3.37-13.75-13.73,0-30.92,0-61.84,0-92.77,0-10.5,3.14-13.63,13.69-13.64,47.52,0,95.03,0,142.55,0,10.33,0,13.49,3.13,13.49,13.33,.01,31.09,.01,62.17,0,93.26,0,10.09-3.41,13.53-13.44,13.54-23.92,.02-47.84,0-71.76,0Zm65.5-100.32H21.01v80.41H151.13v-80.41Z"/><path d="M202.19,68.11c33.01,0,66.03-.01,99.04,.01,6.39,0,10.11,2.43,11.32,7.13,1.37,5.35-1.34,10.29-6.69,11.68-2.16,.56-4.49,.69-6.74,.69-64.89,.03-129.78,.03-194.66,0-2.25,0-4.57-.16-6.74-.72-4.37-1.12-7.09-5.02-6.94-9.41,.15-4.54,3.45-8.4,8.01-9.12,1.91-.3,3.89-.24,5.84-.24,32.53-.01,65.05,0,97.58,0Z"/><path d="M422.75,25.26c21.24,.13,36.18,21.14,29.08,41.16-1.12,3.15-.71,5.08,1.7,7.19,2.18,1.92,4.22,4.09,5.9,6.45,2.7,3.78,2.06,8.87-1.14,12.05-3.18,3.16-8.17,3.64-12.08,1.15-.55-.35-1.25-.62-1.57-1.13-4.56-7.09-10.52-6.79-18.21-5.38-17.46,3.21-33.7-10.37-34.81-27.77-1.19-18.61,12.87-33.85,31.14-33.73Zm-.26,19.55c-6.2,.05-11.41,5.3-11.43,11.52-.02,6.19,5.19,11.54,11.35,11.66,6.2,.12,11.84-5.57,11.72-11.81-.12-6.12-5.54-11.41-11.64-11.36Z"/><path d="M340.21,68.23c5.47-.07,9.79,4.03,9.8,9.29,.02,5.54-4.44,10.13-9.75,10.06-5.26-.07-9.52-4.43-9.53-9.74-.01-5.42,4.05-9.54,9.48-9.61Z"/><path d="M133.41,233.7c-19.32-1.07-34.67-17.3-33.47-35.39,1.33-20,17.07-34.4,36.45-33.35,18.63,1.01,33.57,17.51,32.46,35.85-1.15,19.01-17.2,33.9-35.44,32.89Zm.89-49.29c-8.13,.06-14.89,6.82-14.89,14.9,0,8.08,6.77,14.87,14.9,14.95,8.33,.08,15.22-6.87,15.08-15.19-.14-8.16-6.89-14.71-15.08-14.65Z"/><path d="M358.88,429.78c-26.68,0-53.36,.02-80.04-.01-6.4,0-10.11-2.43-11.31-7.13-1.37-5.35,1.36-10.29,6.71-11.68,2.01-.52,4.17-.68,6.26-.68,52.22-.04,104.44-.04,156.66,0,2.09,0,4.25,.19,6.26,.71,4.56,1.2,7.19,5.2,6.84,9.92-.32,4.37-3.51,7.94-7.94,8.62-1.91,.29-3.89,.24-5.84,.24-25.87,.01-51.73,0-77.6,0Z"/><path d="M249.35,420.29c-.1,5.37-4.42,9.56-9.7,9.42-5.44-.15-9.62-4.32-9.62-9.6,0-5.56,4.42-9.81,10.02-9.63,5.4,.17,9.4,4.39,9.3,9.82Z"/><path d="M415.31,208.87c13.65,0,27.31-.08,40.96,.03,7.95,.06,12.63,5.78,10.59,12.59-1.3,4.34-4.95,6.84-10.59,6.89-10.73,.09-21.46,.03-32.19,.03-16.42,0-32.84,.03-49.25-.01-6.5-.02-10.54-2.75-11.52-7.58-1.37-6.69,3.03-11.83,10.55-11.9,13.82-.13,27.63-.04,41.45-.04Z"/><path d="M415.13,267.53c-13.65,0-27.31,.05-40.96-.02-6.35-.03-10.24-3.06-10.94-8.19-.87-6.37,3.24-11.04,10.33-11.27,6.82-.22,13.65-.06,20.48-.06,20.48,0,40.96-.04,61.45,.02,7.83,.02,12.61,4.57,11.75,10.93-.74,5.46-4.59,8.53-11.15,8.56-13.65,.07-27.31,.02-40.96,.02Z"/><path d="M415.29,169.73c13.33,0,26.66-.03,39.99,.03,1.93,0,3.96,.1,5.75,.71,4.14,1.42,6.33,4.72,6.29,8.93-.04,4.39-2.23,7.81-6.72,9.09-1.84,.52-3.83,.74-5.76,.74-26.5,.05-53,.03-79.49,.03-.65,0-1.3,.02-1.95-.02-6.45-.48-10.42-4.34-10.32-10.02,.1-5.7,4.14-9.41,10.75-9.46,13.82-.1,27.64-.03,41.45-.03Z"/><path d="M433.59,306.71c-7.48,0-14.96,.08-22.44-.02-6.73-.09-10.78-3.56-11.03-9.19-.26-5.9,3.72-10.14,10.52-10.23,15.45-.21,30.9-.22,46.35,0,6.33,.09,10.57,4.55,10.43,9.97-.15,5.51-4.43,9.34-10.9,9.44-7.64,.12-15.29,.03-22.93,.03Z"/><path d="M372.8,287.27c5.23,.11,9.58,4.55,9.57,9.76,0,5.43-4.56,9.74-10.14,9.62-5.31-.12-9.33-4.46-9.19-9.92,.14-5.34,4.51-9.57,9.76-9.46Z"/></svg>