<?xml version="1.0" encoding="UTF-8"?><svg id="a" xmlns="http://www.w3.org/2000/svg" viewBox="0 0 500 517.52"><path d="M215.57,428.75h-7.53c-60.97,0-121.93,0-182.9,0-17.11,0-25.12-7.89-25.12-24.84C0,303.97,0,204.04,0,104.1c0-17.14,7.84-24.98,24.9-25,10.81-.01,21.63,0,32.44,0,1.99,0,3.97,0,6.59,0,0-7.41,0-14.07,0-20.72,0-11-.03-22,0-33C64,8.54,72.53,.03,89.51,.02,169.87,0,250.23,.01,330.58,.01c26.66,0,53.32-.03,79.98,.01,16.9,.03,25.43,8.58,25.47,25.45,.03,15.46,0,30.93,0,46.39,0,2.18,0,4.37,0,7.23,6.59,0,12.51,0,18.44,0,8.02,0,16.04-.16,24.05,.05,12.6,.34,20.82,8.57,21.41,21.14,.1,2.05,.05,4.1,.05,6.15,0,83.35,0,166.7,0,250.05,0,16.03,.04,32.05-.01,48.08-.05,15.91-8.28,24.16-24.12,24.17-61.34,.02-122.68,0-184.02,0h-7.38c2.82,10.91,5.39,21.31,8.33,31.6,.29,1.02,2.84,1.87,4.39,1.97,8.35,.51,16.86-.1,25.06,1.25,21.39,3.52,37.39,22.72,37.89,44.36,.15,6.66-2.74,9.53-10.08,9.55-24.05,.06-48.1,.03-72.15,.03-41.95,0-83.9,0-125.85,0-10.62,0-12.92-2.54-11.92-13.03,2.16-22.73,21.37-40.97,44.34-41.95,6.33-.27,12.68,.05,19.01-.25,1.38-.07,3.56-1.4,3.89-2.58,2.86-10,5.38-20.1,8.2-30.95ZM419.99,73.88H79.99c0,2.33,0,4.19,0,6.04,0,73.83,0,147.67,0,221.5,0,9.05,1.33,10.41,10.3,10.41,106.45,0,212.9,0,319.35,0,8.99,0,10.35-1.37,10.35-10.37,0-70.29,0-140.58,0-210.88,0-5.4,0-10.79,0-16.71ZM16.17,359.29H483.82c0-2.1,0-3.76,0-5.42,0-83.36,0-166.72,0-250.08,0-1.3,.43-2.9-.16-3.85-1.07-1.71-2.74-4.3-4.2-4.33-14.28-.32-28.57-.2-43.41-.2,0,2.78,0,4.98,0,7.18,0,66.39,0,132.78,0,199.17,0,17.88-8.47,26.32-26.35,26.32-106.28,0-212.57-.18-318.85,.21-14.85,.05-27.26-8.26-27.11-27.11,.55-66.2,.21-132.4,.21-198.6,0-2.32,0-4.64,0-7.28-13.44,0-25.92,0-38.4,0-8.91,0-9.38,.49-9.38,9.6,0,82.61,0,165.23,0,247.84,0,2.03,0,4.06,0,6.54Zm0,17.01c0,8.98,0,17.34,0,25.7,0,10.2,.2,10.41,10.24,10.41,86.09,0,172.19,0,258.28,0,62.99,0,125.99,0,188.98,0,1.86,0,3.97,.46,5.52-.25,1.77-.81,4.28-2.66,4.34-4.13,.37-10.53,.2-21.09,.2-31.73H16.17ZM420,57.06c0-10.33,0-20.01,0-29.7,0-10.04-1.26-11.32-11.16-11.32-105.9,0-211.79,0-317.69,0-1.68,0-3.73-.56-4.95,.2-2.3,1.44-5.76,3.57-5.85,5.55-.55,11.66-.27,23.35-.27,35.27H420ZM157.54,501.3h185.07c-.32-1.29-.47-2.37-.85-3.36-4.73-12.21-15.93-19.31-31.06-19.36-30.35-.09-60.7-.07-91.05-.01-12.28,.02-24.59-.25-36.82,.55-12.38,.81-22.57,10.21-25.29,22.18Zm66.19-39.44h52.54c-2.96-11.35-5.76-22.07-8.57-32.84h-35.46c-2.85,10.98-5.64,21.73-8.52,32.84Z"/><path d="M342.25,185.87c-13.59-10.4-26.59-20.34-39.59-30.29-1.03-.79-2.15-1.5-3.08-2.39-3.45-3.31-4.06-7.21-1.24-11.01,2.87-3.85,6.95-4.41,10.87-1.73,4.91,3.35,9.52,7.15,14.26,10.76,11.84,9.02,23.73,17.98,35.51,27.09,6.35,4.91,6.49,10.33,.32,15.1-16.05,12.41-32.17,24.72-48.39,36.9-1.94,1.45-5.04,2.94-7,2.36-2.62-.77-6.22-3.33-6.54-5.53-.41-2.85,1.1-7.2,3.33-9.02,11.96-9.76,24.4-18.93,36.67-28.32,1.56-1.19,3.06-2.46,4.89-3.93Z"/><path d="M157.9,186c2.45,1.95,4.56,3.69,6.73,5.35,11.39,8.7,22.82,17.34,34.18,26.08,4.84,3.73,5.85,8.65,2.8,12.51-3.03,3.83-7.56,4.15-12.34,.52-16.31-12.37-32.59-24.79-48.8-37.29-5.73-4.42-5.8-9.92-.07-14.36,16.33-12.65,32.76-25.17,49.23-37.64,4.38-3.32,9.05-2.89,11.93,.68,2.96,3.67,2.16,8.77-2.24,12.18-12.8,9.92-25.68,19.72-38.53,29.58-.85,.65-1.64,1.36-2.89,2.4Z"/><path d="M274.68,127.35c-.74,2.78-1.59,6.2-2.54,9.6-10.01,35.82-20.03,71.63-30.05,107.44-.35,1.25-.66,2.53-1.14,3.73-1.79,4.47-5.13,6.37-9.78,5.15-4.77-1.26-6.5-4.87-5.65-9.46,.75-4.01,2.11-7.9,3.21-11.84,9.74-34.92,19.49-69.85,29.25-104.77,.45-1.61,.85-3.29,1.67-4.71,1.95-3.4,4.94-5.06,8.9-4.03,4.14,1.08,6.12,3.94,6.14,8.88Z"/><path d="M323.83,28.54c22.56,0,45.11-.02,67.67,.03,2.21,0,4.96-.37,6.51,.75,2.3,1.67,5.2,4.51,5.19,6.85,0,2.65-2.55,5.68-4.73,7.79-1.17,1.13-3.88,.91-5.89,.91-45.49,.04-90.97,.04-136.46,.02-1.67,0-3.39,.02-4.99-.38-4.14-1.03-6.45-3.89-6.31-8.09,.13-3.91,2.38-6.65,6.34-7.48,1.8-.38,3.7-.38,5.55-.38,22.37-.02,44.74-.02,67.11-.02Z"/><path d="M109.14,29.29c4.07,.02,7.49,3.34,7.56,7.31,.07,4.23-3.55,7.67-7.89,7.52-4.08-.14-7.38-3.58-7.28-7.57,.1-3.99,3.55-7.28,7.61-7.26Z"/><path d="M148.25,36.69c0,4.17-3.12,7.35-7.3,7.44-4.21,.09-7.42-2.94-7.56-7.14-.15-4.45,3.11-7.79,7.53-7.72,4.17,.07,7.32,3.26,7.33,7.42Z"/><path d="M179.88,36.95c-.13,4.17-3.36,7.24-7.54,7.18-4.17-.06-7.36-3.26-7.37-7.39-.02-4.34,3.47-7.64,7.86-7.45,4.16,.18,7.19,3.47,7.06,7.66Z"/></svg>