<?xml version="1.0" encoding="UTF-8"?><svg id="a" xmlns="http://www.w3.org/2000/svg" viewBox="0 0 500 499.92"><path d="M0,337.85C0,237.62,0,137.39,0,37.15c.23-.6,.57-1.18,.66-1.79C3.68,14.97,21.37-.37,44.21,0c15.45,.25,30.91,.05,46.37,.05,121.7,0,243.4-.01,365.1,.01,25.99,0,44.22,17.52,44.25,42.98,.11,96.3,.13,192.6-.14,288.89-.02,6.46-1.5,13.44-4.26,19.26-7.72,16.29-21.55,23.7-39.35,23.73-43.93,.07-87.86,.02-131.79,.02-1.92,0-3.84,0-6.09,0,4.6,25.25,9.11,49.99,13.67,75.06,2.09,0,3.86,0,5.63,0,9.6,.03,19.21-.22,28.79,.14,14.69,.56,25.58,14.87,22.66,29.26-2.35,11.57-10.02,17.68-20.93,20.5H131.83c-7.81-2.05-14.53-5.7-18.41-13.17-8.86-17.1,2.73-36.39,22.09-36.69,10.72-.17,21.44-.03,32.47-.03,4.57-25.09,9.08-49.84,13.67-75.07h-6.11c-43.78,0-87.55-.02-131.33,.02-12.05,.01-22.72-3.46-31.55-11.89C5.45,356.19,1.96,347.4,0,337.85Zm483.34-46.32c0-1.9,0-3.34,0-4.77,0-80.86,.01-161.72-.01-242.59,0-17.23-10.4-27.49-27.8-27.49-137.02-.01-274.04-.01-411.06,0-17.61,0-27.82,10.28-27.82,27.96-.02,80.54,0,161.07,0,241.61,0,1.71,.14,3.42,.23,5.27H483.34Zm-.09,17.24H16.63c0,6.88,0,13.37,0,19.86,0,20.04,9.59,29.69,29.52,29.69,135.88,0,271.76,0,407.63,0,1.95,0,3.91,.04,5.85-.11,13.06-1.05,22.81-10.62,23.52-23.7,.45-8.42,.09-16.88,.09-25.73ZM184.99,450.02c12.83,0,24.68,0,36.54,0,6.51,0,13.02-.1,19.53,.05,5.2,.12,8.65,3.35,8.84,7.89,.18,4.24-3.03,7.86-7.75,8.54-1.6,.23-3.25,.15-4.87,.15-33.52,0-67.04,0-100.56,.02-5.89,0-9.58,3.14-9.72,8-.14,4.92,3.83,8.44,9.73,8.61,.81,.02,1.63,0,2.44,0,73.88,0,147.75,0,221.63,0,7.99,0,12.34-3.09,12.16-8.62-.17-5.45-4.05-8.01-12.17-8.01-21.8,0-43.61,0-65.41-.01-1.62,0-3.28,.03-4.86-.27-4.41-.85-7.41-4.55-7.13-8.56,.29-4.2,3.5-7.55,8.03-7.68,7.61-.21,15.23-.06,23.56-.06-4.61-25.38-9.09-50.07-13.59-74.82h-102.83c-4.51,24.84-8.97,49.41-13.58,74.76Z"/><path d="M383.12,241.63c4.05,0,8.22-.06,12.39,.02,2.27,.05,4.62,0,6.77,.58,3.92,1.05,5.93,3.97,5.84,7.98-.08,3.79-2.09,6.55-5.8,7.53-2.16,.57-4.51,.59-6.77,.59-97.13,.03-194.26,.02-291.39,.02-8.44,0-12.39-2.7-12.38-8.37,.01-5.64,4-8.32,12.41-8.34,4.2-.01,8.39,0,12.39,0-20.41-74.02-1.63-134.13,65.18-173.29,48.98-28.71,100.97-26,147.43,6.67,58.28,40.98,73.84,98.31,53.92,166.62Zm-223.12-.04c-1.15-3.04-2.06-5.43-2.97-7.82-8.14-21.35-8.79-43.12-3.52-65.18,1.17-4.91,5.25-7.43,9.89-6.53,4.29,.83,6.87,4.64,6.39,9.5-.1,.96-.36,1.91-.56,2.87-4.78,21.9-2.61,42.93,7.59,63.07,1.51,2.98,3.15,4.33,6.64,4.22,8.78-.26,17.57-.09,26.36-.09,3.5,0,7,0,10.9,0-.57-1.65-.84-2.56-1.19-3.45-5.55-14.05-3.13-26.77,7.59-37.18,23.23-22.54,46.8-44.74,70.37-66.93,4.96-4.67,10.48-8.75,15.88-12.92,2.87-2.22,5.97-2.14,9.02,.03,3.06,2.18,4.01,4.96,2.83,8.49-1.8,5.39-3.28,10.91-5.48,16.13-12.63,29.93-25.43,59.78-38.17,89.66-.78,1.84-1.52,3.7-2.52,6.13,13.85,0,26.85,.09,39.85-.14,1.24-.02,2.89-1.8,3.61-3.15,11.48-21.54,13.42-44.14,7.34-67.62-1.65-6.36,.44-10.68,5.64-12.01,4.84-1.23,8.59,1.57,10.34,7.78,5.45,19.41,5.5,38.84,0,58.23-1.57,5.53-3.57,10.94-5.54,16.91,7.65,0,14.79,.15,21.92-.15,1.21-.05,2.86-1.85,3.42-3.21,9.42-22.88,11.72-46.58,6.93-70.79-13.23-66.96-78.1-111.23-145.2-98.45-43.53,8.29-74.6,33.58-92.28,74.05-13.7,31.36-13.48,63.51-.65,95.38,.51,1.26,1.98,2.98,3.06,3.02,7.28,.27,14.57,.14,22.52,.14Zm89.67-.11c9.42,.12,16.72-7.01,16.87-16.45,.14-8.92-7.19-16.46-16.24-16.71-9.01-.25-16.86,7.45-16.9,16.59-.05,9.1,7.19,16.46,16.28,16.57Zm47.19-82.92c-.24-.24-.47-.48-.71-.72-12.43,11.55-24.86,23.09-36.78,34.16,6.2,4.2,12.12,8.21,18.23,12.34,6.24-14.84,12.75-30.31,19.26-45.79Z"/><path d="M250.03,341.69c-5.19,0-10.38,.12-15.56-.03-5.79-.18-9.37-3.54-9.33-8.42,.04-4.93,3.6-8.1,9.49-8.15,10.21-.09,20.43-.08,30.64,0,5.93,.05,9.47,3.14,9.56,8.07,.1,5.06-3.59,8.38-9.72,8.52-5.02,.11-10.05,.02-15.08,.02Z"/><path d="M250.56,91.84c11.15,.12,22.92,2.07,34.25,6.47,5.54,2.15,7.82,6.08,6.27,10.86-1.51,4.64-5.99,6.81-11.54,4.84-10.36-3.67-20.92-5.86-31.94-5.44-12.5,.48-24.36,3.47-35.4,9.47-1.28,.7-2.56,1.4-3.87,2.05-5.23,2.59-9.93,1.49-12.2-2.83-2.32-4.42-.71-8.86,4.32-11.8,15.18-8.88,31.58-13.33,50.1-13.62Z"/></svg>