<?xml version="1.0" encoding="UTF-8"?><svg id="a" xmlns="http://www.w3.org/2000/svg" viewBox="0 0 500 328.08"><path d="M0,153.31c2.25-10.27,3.63-20.82,6.88-30.76C26.18,63.54,84.07,26.16,145.82,32.36c62.11,6.24,111.78,56.04,118.07,118.4,1.27,12.59,1.22,25.47,3.94,37.74,10.26,46.29,54.27,79.8,101.83,78.5,49.18-1.34,90.8-36.49,99.18-83.75,8.7-49.08-16.82-95.94-62.48-114.69-1.77-.73-3.6-1.28-6.8-2.41,4.46,6.47,8.31,11.75,11.82,17.24,5.93,9.27,1.08,20.7-9.56,22.61-5.79,1.04-10.75-.94-14.14-5.69-10.85-15.24-21.63-30.53-32.17-45.98-4.45-6.53-2.94-14.99,3.45-19.58,15.2-10.9,30.52-21.64,45.97-32.18,6.73-4.6,15.31-2.73,19.9,3.69,4.59,6.42,3.41,14.99-3.06,20.02-4.82,3.75-9.93,7.14-14.07,10.08,11.79,6.35,24.22,11.75,35.24,19.21,44.26,29.98,65.43,84.45,54.02,136.84-11.27,51.7-53.35,92.35-105.29,101.7-74.42,13.39-144.5-37.07-154.99-111.85-1.4-9.96-1.04-20.15-2.17-30.15-6.07-53.56-52.73-93.27-106.53-90.89-49.1,2.16-89.71,38.37-97.49,86.94-7.68,47.89,20.15,95.39,65.86,112.42,.88,.33,1.8,.58,4.2,1.36-4.21-6.04-8.1-10.73-10.94-15.99-1.9-3.52-3.41-7.92-3.15-11.8,.39-5.89,4.33-9.98,10.27-11.67,5.96-1.69,11.43-.21,14.92,4.57,11.39,15.64,22.51,31.5,33.33,47.54,4.09,6.07,2.19,14.41-3.87,18.75-15.2,10.9-30.51,21.65-45.97,32.18-6.91,4.71-15.73,2.68-20.2-4.01-4.4-6.57-2.95-14.96,3.65-19.94,4.76-3.59,9.72-6.9,14.59-10.34-8.61-3.97-17.15-7.12-24.92-11.62C29.21,257.04,6.58,223.34,.84,178.48c-.12-.92-.55-1.81-.84-2.71,0-7.49,0-14.97,0-22.46Z"/><path d="M344.79,164.24c-.07,17.47-14.23,31.5-31.74,31.45-17.43-.05-31.66-14.26-31.68-31.62-.02-17.58,14.5-31.91,32.1-31.69,17.57,.22,31.4,14.29,31.33,31.86Zm-31.72,16.8c9.5,.04,17.05-7.46,17.07-16.94,.03-9.51-7.43-17.01-16.95-17.06-9.41-.05-17.14,7.57-17.18,16.94-.04,9.35,7.64,17.03,17.05,17.07Z"/><path d="M56.65,163.79c0-7.63-.06-15.27,.02-22.9,.06-5.73,2.61-8.32,8.3-8.49,3.73-.11,7.47-.05,11.21-.03,14.98,.1,24.3,7.56,27.59,22.29,1.73,7.76,1.46,15.5-1.33,23.01-4.24,11.39-13.11,17.65-25.21,17.93-4.22,.1-8.45,.22-12.66,.06-5.09-.19-7.72-2.85-7.81-8-.14-7.96-.04-15.92-.04-23.87h-.06Zm14.93-16.53v33.44c6.01,.56,11.87,1.14,15.37-4.78,4.46-7.55,4.41-15.58,.55-23.3-3.23-6.46-9.44-5.84-15.92-5.36Z"/><path d="M430.2,132.39c7.23,.06,13.19,1.88,18.12,6.33,3.56,3.22,3.94,7.68,1.18,10.83-2.71,3.09-6.64,3.44-10.43,.47-3.5-2.75-7.3-3.56-11.42-2.44-1.32,.36-2.31,1.92-3.44,2.94,.96,.94,1.76,2.24,2.91,2.76,3.99,1.8,8.13,3.25,12.15,4.99,9.9,4.27,15.01,12.21,13.46,20.73-1.7,9.32-9.76,16.07-20.16,16.65-8.68,.48-16.34-2.16-22.69-8.2-3.77-3.59-4.14-8.02-1.09-11.19,3.03-3.15,6.85-3.17,10.78,.29,4.05,3.57,8.62,5.39,13.87,4.06,1.77-.45,4.09-2.24,4.42-3.78,.26-1.25-1.77-3.68-3.34-4.49-4.18-2.13-8.68-3.61-13.01-5.43-8.48-3.57-12.82-9.9-12.04-17.44,.87-8.45,7.2-15.02,16.07-16.58,1.75-.31,3.55-.38,4.67-.49Z"/><path d="M129.51,146.93v9.79c3.52,0,6.88-.07,10.24,.02,5.29,.13,8.59,2.97,8.57,7.27-.02,4.26-3.3,7.07-8.61,7.33-1.62,.08-3.25,.03-4.88,.03-1.6,0-3.21,0-5.22,0v9.77c3.72,0,7.54-.06,11.36,.01,5.63,.1,8.59,2.53,8.71,7.01,.13,4.67-2.94,7.45-8.72,7.58-5.85,.13-11.7,.14-17.55,0-6.15-.16-8.77-2.63-8.82-8.61-.12-15.44-.11-30.88,0-46.32,.04-5.82,2.65-8.35,8.37-8.46,6.17-.12,12.35-.12,18.53,0,5.21,.1,8.09,2.67,8.19,7.02,.11,4.53-2.84,7.32-8.27,7.54-3.86,.16-7.73,.03-11.9,.03Z"/><path d="M369.22,175.02c0,4.35,.08,8.53-.02,12.71-.12,4.99-2.91,8-7.23,8-4.27,0-7.31-3.05-7.34-7.97-.1-15.75-.11-31.5,0-47.25,.03-5.16,2.72-7.84,7.79-8.01,4.7-.16,9.43-.22,14.12,.03,11.25,.58,19.69,8.94,20.25,19.8,.57,10.98-6.78,20.03-17.96,21.9-2.99,.5-6.07,.51-9.62,.79Zm.3-15.16c4.4,.12,9.02,1.31,11.48-3.19,.98-1.79,.73-5.35-.47-7.02-2.75-3.82-7.02-2.73-11.01-2.02v12.22Z"/><path d="M185.09,166.34c3.11-9.35,6.13-18.73,9.36-28.03,1.92-5.53,7.82-7.82,11.42-4.12,1.78,1.83,3.13,5.76,2.42,8.06-4.87,15.97-10.31,31.77-15.63,47.61-1.27,3.79-4.02,5.87-8.06,5.86-4.05-.01-6.69-2.18-8-5.94-5.46-15.61-10.96-31.21-16.3-46.87-1.62-4.73,.24-8.69,4.19-10.01,4.3-1.44,7.9,.51,9.72,5.58,3.34,9.28,6.52,18.61,9.77,27.92,.37-.02,.74-.04,1.11-.06Z"/></svg>